<svg width="52" height="61" viewBox="0 0 52 61" fill="none" xmlns="http://www.w3.org/2000/svg">
<path d="M4.19869 47.053H21.3017V52.552H17.964C17.4113 52.552 16.9542 53.0757 16.9542 53.7366V57.1657C16.9542 57.8141 17.4007 58.3503 17.964 58.3503H34.036C34.5887 58.3503 35.0458 57.8265 35.0458 57.1657V53.7366C35.0458 53.0882 34.5993 52.552 34.036 52.552H30.6983V47.053H47.8013C50.1186 47.053 52 44.846 52 42.1276V7.57511C52 4.85679 50.1186 2.64972 47.8013 2.64972H4.19869C1.88144 2.64972 0 4.85679 0 7.57511V42.1276C0 44.846 1.88144 47.053 4.19869 47.053ZM5.72935 9.37069H46.2706V40.2946H5.72935V9.37069ZM31.4105 16.8398L34.7163 20.7427L27.0948 29.6334L23.7678 33.5113L20.462 29.6209L17.2731 25.8552L20.6002 21.9772L23.789 25.7429L31.4105 16.8398Z" fill="white"/>
</svg>
