<svg width="48" height="46" viewBox="0 0 48 46" fill="none" xmlns="http://www.w3.org/2000/svg">
<path d="M44.971 42.396C44.971 40.402 41.333 34.829 41.333 34.829C41.333 34.829 37.64 40.402 37.64 42.396C37.64 44.386 39.282 46 41.306 46C43.329 46 44.971 44.386 44.971 42.396ZM18.666 11.171H11.335V3.944H13.334V0H0V3.944H2V15.114C2 18.018 4.388 20.371 7.333 20.371H18.666V22.343H22.667V9.201H18.666V11.171ZM45.998 27.599V16.429C45.998 13.526 43.611 11.172 40.669 11.172H29.334V9.202H25.333V22.345H29.334V20.372H36.666V27.599H34.669V31.543H48V27.599H45.998Z" fill="white"/>
</svg>
