<svg width="61" height="52" viewBox="0 0 61 52" fill="none" xmlns="http://www.w3.org/2000/svg">
<path d="M48.9849 20.4848H46.2121V13.3938C46.2121 6.00836 39.1637 0 30.5 0C21.8363 0 14.7879 6.00836 14.7879 13.3938V20.4848H12.0152C10.4839 20.4848 9.24243 21.5431 9.24243 22.8485V49.6364C9.24243 50.9417 10.4839 52 12.0152 52H48.9849C50.5161 52 51.7576 50.9417 51.7576 49.6364V22.8485C51.7576 21.5431 50.5161 20.4848 48.9849 20.4848ZM20.3333 13.3938C20.3333 8.61514 24.8941 4.72727 30.5 4.72727C36.1059 4.72727 40.6667 8.61514 40.6667 13.3938V20.4848H20.3333V13.3938ZM46.2121 47.2727H14.7879V25.2121H17.5606H43.4394H46.2121V47.2727Z" fill="white"/>
<path d="M36.3885 31.2227C35.3059 30.2996 33.5502 30.2996 32.4673 31.2227L30.5 32.8998L28.5325 31.2227C27.4498 30.2996 25.6941 30.2996 24.6113 31.2227C23.5284 32.1458 23.5284 33.6423 24.6113 34.5654L26.5788 36.2424L24.6114 37.9197C23.5286 38.8428 23.5286 40.3392 24.6114 41.2623C25.1529 41.7239 25.8625 41.9547 26.572 41.9547C27.2814 41.9547 27.9912 41.724 28.5325 41.2623L30.5 39.5851L32.4675 41.2623C33.0089 41.7239 33.7186 41.9547 34.428 41.9547C35.1375 41.9547 35.8473 41.724 36.3885 41.2623C37.4714 40.3392 37.4714 38.8428 36.3885 37.9197L34.4212 36.2424L36.3885 34.5652C37.4715 33.6423 37.4715 32.1456 36.3885 31.2227Z" fill="white"/>
</svg>
