<svg width="72" height="30" viewBox="0 0 72 30" fill="none" xmlns="http://www.w3.org/2000/svg">
<path d="M26.1761 12.4997V17.5004C26.1761 18.1722 25.6841 18.7192 25.0792 18.7192H23.6963C23.0916 18.7192 22.5993 18.1725 22.5993 17.5004V12.4997C22.5993 11.8278 23.0913 11.2808 23.6963 11.2808H25.0792C25.6841 11.2811 26.1761 11.8278 26.1761 12.4997ZM72 6.91958V23.0805C72 26.5279 69.4757 29.3327 66.3729 29.3327H5.62706C2.52434 29.3327 0 26.5279 0 23.0805V6.91958C0 3.47212 2.52434 0.667297 5.62706 0.667297H66.3729C69.4757 0.667297 72 3.47212 72 6.91958ZM17.9437 20.913C17.9437 19.7014 17.0597 18.7192 15.9693 18.7192H11.1707V9.08733C11.1707 7.87578 10.2867 6.89355 9.19626 6.89355C8.10586 6.89355 7.22185 7.87578 7.22185 9.08733V20.913C7.22185 22.1246 8.10586 23.1068 9.19626 23.1068H15.9693C17.0597 23.1068 17.9437 22.1246 17.9437 20.913ZM30.125 12.4997C30.125 9.4085 27.8615 6.89326 25.0792 6.89326H23.6963C20.9142 6.89326 18.6505 9.40821 18.6505 12.4997V17.5004C18.6505 20.5915 20.914 23.1068 23.6963 23.1068H25.0792C27.8615 23.1068 30.125 20.5918 30.125 17.5004V12.4997ZM43.5546 17.5004C43.5546 16.2888 42.6706 15.3066 41.5802 15.3066H39.7843C38.6939 15.3066 37.8099 16.2888 37.8099 17.5004C37.8099 17.9514 37.9323 18.3705 38.1424 18.7192H37.1262C36.5215 18.7192 36.0292 18.1725 36.0292 17.5004V12.4997C36.0292 11.8278 36.5212 11.2808 37.1262 11.2808H38.5091C38.8521 11.2808 39.0927 11.4461 39.2341 11.585C40.0517 12.3871 41.2993 12.3005 42.0209 11.3923C42.7425 10.484 42.6648 9.09757 41.8474 8.29582C40.9255 7.39139 39.7398 6.89355 38.5091 6.89355H37.1262C34.3441 6.89355 32.0804 9.4085 32.0804 12.5V17.5006C32.0804 20.5918 34.3439 23.1071 37.1262 23.1071H38.5091C41.2911 23.1068 43.5546 20.5918 43.5546 17.5004ZM49.4075 9.08733C49.4075 7.87578 48.5235 6.89355 47.4331 6.89355C46.3427 6.89355 45.4587 7.87578 45.4587 9.08733V20.913C45.4587 22.1246 46.3427 23.1068 47.4331 23.1068C48.5235 23.1068 49.4075 22.1246 49.4075 20.913V9.08733ZM64.0839 9.08733C64.0839 7.87578 63.1999 6.89355 62.1095 6.89355C61.0191 6.89355 60.1351 7.87578 60.1351 9.08733V14.5279L55.3744 7.73918C54.8564 7.00002 53.9731 6.7081 53.1755 7.01289C52.3781 7.31739 51.8426 8.15073 51.8426 9.08763V20.9133C51.8426 22.1248 52.7266 23.1071 53.817 23.1071C54.9074 23.1071 55.7914 22.1248 55.7914 20.9133V15.4727L60.5521 22.2614C60.9336 22.8055 61.5127 23.1071 62.1098 23.1071C62.3238 23.1071 62.5405 23.0682 62.7511 22.988C63.5485 22.6835 64.0839 21.8499 64.0839 20.9133V9.08733Z" fill="#FCFCFC"/>
</svg>
