<svg width="292" height="146" viewBox="0 0 292 146" fill="none" xmlns="http://www.w3.org/2000/svg">
<g clip-path="url(#clip0_18_2)">
<path d="M61.6772 0.41069L40.4445 33.1289L19.2119 0.41069H0.0524902V77.7571H17.4961V27.5846L40.0156 60.3029H40.4445L63.1785 27.2424V77.7571H80.8366V0.41069H61.6772Z" fill="#151516"/>
<path d="M85.6979 18.5495H103.213V30.4594C106.788 22.3141 112.578 16.9752 122.944 17.4543V34.977H122.015C110.362 34.977 103.213 41.685 103.213 55.8537V77.7571H85.6979V18.5495Z" fill="#161515"/>
<path d="M272.788 24.3676L262.279 39.9053L251.841 24.3676H234.898L253.7 50.6517L234.183 77.7571H250.698L261.922 61.1242L273.146 77.7571H290.16L270.5 50.3779L289.302 24.3676H272.788Z" fill="#161515"/>
<path d="M185.57 1.02672V15.6746C185.57 15.9469 185.683 16.2081 185.884 16.4006C186.085 16.5932 186.358 16.7014 186.642 16.7014H196.079C196.363 16.7014 196.636 16.5932 196.837 16.4006C197.038 16.2081 197.151 15.9469 197.151 15.6746V13.1421C198.224 12.2522 200.082 11.7046 201.155 11.9784C203.403 12.8537 205.305 14.387 206.588 16.3591C207.803 18.4126 207.732 21.2189 207.732 27.8584L206.302 28.2007C205.937 28.291 205.612 28.4942 205.38 28.7788C205.147 29.0634 205.019 29.4136 205.015 29.775C205.015 29.775 204.944 30.9386 204.944 42.0272C204.944 58.5232 203.014 77.0042 203.014 77.0042C203.014 77.2765 203.127 77.5377 203.328 77.7302C203.529 77.9228 203.802 78.0309 204.086 78.0309H219.385C219.669 78.0309 219.942 77.9228 220.143 77.7302C220.344 77.5377 220.457 77.2765 220.457 77.0042C220.457 77.0042 218.455 58.5232 218.455 42.0272C218.455 30.8701 218.384 29.775 218.384 29.775C218.359 29.4193 218.223 29.0792 217.993 28.7985C217.764 28.5178 217.452 28.3095 217.097 28.2007L215.882 27.8584C215.882 20.3976 216.597 17.7965 219.742 15.0586C222.888 12.3207 227.249 11.6362 231.324 12.0469C235.399 12.4576 240.475 18.0703 241.833 19.85C243.191 21.6296 243.692 19.4393 243.62 17.9334C243.477 15.0586 239.545 7.39241 230.466 3.76465C224.584 1.36677 218.271 0.0881054 211.878 0C209.579 0.0150879 207.285 0.198148 205.015 0.547586C202.942 0.889827 202.156 3.76465 200.297 3.76465C198.438 3.76465 197.938 2.73793 197.223 2.05345V1.02672C197.223 0.754419 197.11 0.493268 196.909 0.30072C196.708 0.108172 196.435 0 196.15 0L186.642 0C186.358 0 186.085 0.108172 185.884 0.30072C185.683 0.493268 185.57 0.754419 185.57 1.02672Z" fill="white"/>
<path d="M127.377 0.41069V77.7571H145.178V47.8453H180.923V32.376H145.178V15.88H180.995V0.41069H127.377Z" fill="#161515"/>
<path d="M0.481445 97.6071H3.55553V136.896H0.481445V97.6071Z" fill="#161515"/>
<path d="M15.4944 108.285H18.354V113.624C19.3772 111.748 20.9336 110.187 22.8437 109.121C24.7537 108.055 26.9396 107.528 29.149 107.601C36.727 107.601 41.0879 112.529 41.0879 119.374V136.896H38.2283V119.853C38.2283 113.966 34.7968 110.065 28.7201 110.065C22.6434 110.065 18.354 114.308 18.354 120.263V136.896H15.4944V108.285Z" fill="#161515"/>
<path d="M74.045 100.345L66.1096 102.946L65.3232 100.619L74.6884 97.3333H77.0476V136.896H74.045V100.345Z" fill="#161515"/>
<path d="M99.853 124.165L89.2724 136.896H85.8409L97.9942 122.317L86.2698 108.285H89.8443L99.853 120.4L110.005 108.285H113.436L101.64 122.248L113.937 136.896H110.362L99.853 124.165Z" fill="#161515"/>
<path d="M139.03 141.619L140.745 139.361C144.184 141.968 148.44 143.391 152.827 143.399C159.69 143.399 164.552 139.634 164.552 132.31V128.135C161.978 131.694 157.975 134.774 152.041 134.774C144.82 134.774 137.671 129.504 137.671 121.29V121.153C137.671 112.871 144.82 107.601 152.041 107.601C154.515 107.581 156.954 108.154 159.139 109.265C161.324 110.377 163.184 111.993 164.552 113.966V108.217H167.411V132.379C167.411 136.554 165.982 139.771 163.622 142.098C161.263 144.426 157.188 145.932 152.756 145.932C147.811 145.971 142.989 144.456 139.03 141.619ZM164.695 121.222V121.085C164.695 114.445 158.547 110.202 152.327 110.202C146.107 110.202 140.745 114.377 140.745 121.016V121.153C140.736 122.606 141.03 124.045 141.61 125.387C142.19 126.729 143.045 127.946 144.125 128.967C145.204 129.988 146.486 130.791 147.894 131.33C149.303 131.869 150.81 132.132 152.327 132.105C158.547 132.105 164.695 127.724 164.695 121.222Z" fill="#161515"/>
<path d="M176.276 122.659V122.522C176.257 120.575 176.64 118.643 177.404 116.838C178.167 115.033 179.295 113.39 180.723 112.003C182.151 110.617 183.851 109.514 185.726 108.759C187.601 108.003 189.613 107.609 191.647 107.601C200.511 107.601 206.946 114.445 206.946 122.454V122.591C206.974 124.544 206.598 126.483 205.839 128.296C205.08 130.109 203.954 131.76 202.524 133.154C201.095 134.548 199.392 135.657 197.512 136.416C195.633 137.176 193.615 137.572 191.575 137.581C182.71 137.581 176.276 130.736 176.276 122.659ZM203.871 122.659V122.522C203.871 115.609 198.51 110.133 191.575 110.133C184.641 110.133 179.35 115.677 179.35 122.454V122.591C179.35 129.504 184.712 134.98 191.647 134.98C198.581 134.98 203.871 129.436 203.871 122.659Z" fill="#161515"/>
<path d="M213.809 122.591V122.522C213.809 114.24 219.885 107.601 227.964 107.601C236.042 107.601 241.69 114.103 241.69 122.591C241.695 122.957 241.672 123.323 241.618 123.686H216.811C217.312 130.805 222.673 134.98 228.536 134.98C233.182 134.98 236.328 132.995 238.759 130.462L240.76 132.173C237.686 135.322 234.112 137.581 228.393 137.581C220.6 137.581 213.809 131.557 213.809 122.591ZM238.616 121.222C238.187 115.472 234.755 110.133 227.892 110.133C221.029 110.133 217.383 114.925 216.883 121.222H238.616Z" fill="#161515"/>
<path d="M248.124 122.659V122.522C248.124 113.213 255.416 107.532 262.636 107.532C268.642 107.532 272.502 110.818 274.933 114.377V95.8959H277.792V136.896H274.933V130.531C272.359 134.295 268.57 137.581 262.636 137.581C255.416 137.581 248.124 131.968 248.124 122.659ZM275.147 122.591V122.522C275.147 115.198 269.142 110.202 262.922 110.202C256.703 110.202 251.198 114.719 251.198 122.454V122.591C251.198 130.12 256.631 134.911 262.922 134.911C269.214 134.911 275.147 129.915 275.147 122.591Z" fill="#161515"/>
<path d="M288.087 132.105H291.948V136.896H288.087V132.105Z" fill="#161515"/>
</g>
<defs>
<clipPath id="clip0_18_2">
<rect width="292" height="146" fill="white"/>
</clipPath>
</defs>
</svg>
