<svg width="50" height="50" viewBox="0 0 50 50" fill="none" xmlns="http://www.w3.org/2000/svg">
<path d="M48.759 8.229C48.517 7.141 48.502 7 46.059 7H43.603L43.112 5.651C42.464 3.694 40.286 1.829 38.116 1.285C36.86 0.970999 32.386 0.915999 21.467 0.991999C7.74 1.088 6.417 1.166 5.059 1.777C2.019 3.143 0.343999 6.587 1.242 9.62C1.869 11.734 3.187 13.299 5.059 14.14C6.416 14.75 7.739 14.814 21.466 14.909C32.384 14.986 36.859 14.899 38.114 14.584C40.291 14.039 42.463 12.107 43.117 10.132C43.61 8.647 43.632 8.632 45.242 8.738L46.867 8.845L46.975 13.971L47.082 19.096L42.319 20.221C39.703 20.84 36.426 21.631 35.039 21.98C33.653 22.328 30.294 23.145 27.575 23.795L22.631 24.978L22.63 27.574C22.629 30.154 22.855 30.178 21.314 31.466L20 32.761V49H27V32.761L25.569 31.449C24.043 30.173 24.071 30.08 24.187 28.117L24.338 26.099L26.102 25.66C27.063 25.417 30.124 24.673 32.897 24.002C35.67 23.333 40.431 22.184 43.472 21.448L49 20.112V14.784C49 11.856 48.891 8.833 48.759 8.229ZM24.775 44.636C24.775 45.478 24.616 45.652 23.76 45.741C22.682 45.851 22.216 45.317 22.446 44.237C22.536 43.816 22.907 43.634 23.675 43.634C24.651 43.635 24.775 43.749 24.775 44.636Z" fill="#FFFDFD"/>
</svg>
