<svg width="50" height="50" viewBox="0 0 50 50" fill="none" xmlns="http://www.w3.org/2000/svg">
<path d="M41 14H36V2.919C36 1.859 35.105 1 34 1C32.895 1 32 1.859 32 2.919V14H16V2.919C16 1.859 15.105 1 13.999 1C12.894 1 12 1.859 12 2.919V14H7C6.447 14 6 14.869 6 15.399V20.2C6 25.959 16 32.646 16 41.896V45H20V49H28V45H32V41.896C32 32.646 42 25.958 42 20.2V15.399C42 14.869 41.553 14 41 14ZM22.907 30.388C22.972 30.178 22.84 30 22.611 30H18.726C18.496 30 18.431 29.87 18.577 29.701C18.577 29.701 26.582 19.542 26.738 19.346C26.856 19.16 26.986 19.225 26.945 19.439C26.883 19.71 25.174 26.641 25.174 26.641C25.091 26.845 25.211 27 25.438 27H29.325C29.554 27 29.627 27.154 29.487 27.328C29.487 27.328 21.47 37.73 21.326 37.904C21.181 38.078 21.047 38.025 21.12 37.729C21.193 37.432 22.907 30.388 22.907 30.388Z" fill="white"/>
</svg>
