<svg width="57" height="49" viewBox="0 0 57 49" fill="none" xmlns="http://www.w3.org/2000/svg">
<path d="M22.4062 41.669C22.4045 40.2575 22.9433 38.8849 23.939 37.764C24.9348 36.6431 26.3318 35.8365 27.9137 35.4691C29.4956 35.1018 31.174 35.1942 32.6887 35.7321C34.2034 36.27 35.4699 37.2233 36.2919 38.4443C41.9523 36.293 44.0729 32.9167 44.0729 26.5V19.5C44.0729 10.1853 37.9764 3.75 28.5 3.75C19.0235 3.75 12.9271 10.1877 12.9271 19.5V27.6667C12.9263 28.1306 12.7121 28.5754 12.3313 28.9034C11.9506 29.2315 11.4343 29.4161 10.8958 29.4167H8.18748C6.2133 29.4148 4.32055 28.7385 2.92434 27.536C1.52813 26.3336 0.74243 24.7032 0.739563 23.0023L0.739563 20.669C0.741712 18.9676 1.52701 17.3363 2.92322 16.133C4.31943 14.9296 6.21258 14.2525 8.18748 14.25H9.48206C11.5323 5.91767 18.5496 0.25 28.5 0.25C38.4504 0.25 45.465 5.91767 47.5152 14.25H48.8098C50.7842 14.2525 52.6769 14.9293 54.0731 16.1321C55.4692 17.3349 56.2548 18.9656 56.2577 20.6667V23C56.2555 24.7012 55.4702 26.3323 54.0739 27.5352C52.6776 28.7382 50.7844 29.4148 48.8098 29.4167H47.9729C47.8684 32.1803 46.7922 34.8514 44.8867 37.0764C42.9811 39.3014 40.3362 40.9753 37.3021 41.8767C37.2701 43.5785 36.4548 45.1996 35.0354 46.3835C33.616 47.5674 31.7089 48.217 29.7336 48.1895C27.7583 48.162 25.8766 47.4595 24.5025 46.2367C23.1283 45.0139 22.3743 43.3708 22.4062 41.669ZM26.4687 41.669C26.4687 42.2459 26.6673 42.8098 27.0393 43.2894C27.4113 43.7691 27.94 44.1429 28.5586 44.3637C29.1772 44.5844 29.8579 44.6422 30.5146 44.5296C31.1713 44.4171 31.7745 44.1393 32.248 43.7314C32.7215 43.3235 33.0439 42.8038 33.1745 42.238C33.3051 41.6722 33.2381 41.0858 32.9819 40.5528C32.7256 40.0199 32.2917 39.5644 31.735 39.2439C31.1783 38.9234 30.5237 38.7523 29.8541 38.7523C28.9565 38.753 28.0958 39.0604 27.4611 39.6073C26.8264 40.1541 26.4694 40.8956 26.4687 41.669ZM48.1354 25.919H48.8098C49.7079 25.919 50.5693 25.6118 51.2046 25.0649C51.8399 24.518 52.1972 23.7761 52.1979 23.0023V20.669C52.1979 19.8952 51.8413 19.1531 51.2065 18.6058C50.5717 18.0584 49.7106 17.7506 48.8125 17.75H48.1354V25.919ZM4.80206 20.669V23.0023C4.8035 23.7753 5.16072 24.5162 5.79538 25.0625C6.43003 25.6089 7.2903 25.9161 8.18748 25.9167H8.86456V17.75H8.18748C7.28936 17.7506 6.42828 18.0584 5.79346 18.6058C5.15865 19.1531 4.80206 19.8952 4.80206 20.669Z" fill="white"/>
</svg>
