<svg width="32" height="32" viewBox="0 0 32 32" fill="none" xmlns="http://www.w3.org/2000/svg">
<path d="M31.2748 3.69303C30.772 3.96536 30.2552 4.1952 29.7271 4.3818C30.3523 3.51815 30.829 2.50194 31.12 1.38991C31.1853 1.14065 31.1176 0.867812 30.9499 0.70479C30.7824 0.541642 30.5496 0.5221 30.3651 0.655619C29.2436 1.46808 28.0336 2.05196 26.7648 2.39339C25.4868 0.868065 23.751 0 21.9565 0C18.1686 0 15.0869 3.76388 15.0869 8.39028C15.0869 8.75465 15.1058 9.11701 15.1432 9.47432C10.4428 8.97025 6.07298 6.14844 3.07222 1.65254C2.96528 1.49229 2.80053 1.40592 2.63186 1.42244C2.46308 1.43858 2.31145 1.55483 2.22618 1.73348C1.61756 3.00904 1.29581 4.46792 1.29581 5.95226C1.29581 7.97396 1.88678 9.89215 2.9307 11.391C2.61328 11.2567 2.30525 11.0889 2.01127 10.8896C1.85344 10.7823 1.66082 10.7839 1.50402 10.8937C1.34711 11.0036 1.24874 11.2055 1.24461 11.4263C1.24389 11.4635 1.24389 11.5007 1.24389 11.5384C1.24389 14.5561 2.57364 17.273 4.60667 18.7538C4.43201 18.7325 4.25745 18.7017 4.08403 18.6612C3.90525 18.6194 3.7214 18.696 3.60084 18.8625C3.48006 19.029 3.44011 19.2609 3.49575 19.4728C4.24827 22.3424 6.1857 24.4531 8.52789 25.0966C6.58529 26.5827 4.36378 27.3611 2.03171 27.3611C1.5451 27.3611 1.05571 27.3262 0.576743 27.257C0.338808 27.2224 0.111299 27.394 0.030267 27.6704C-0.050765 27.9469 0.0351186 28.2552 0.237544 28.4136C3.23346 30.7599 6.6976 32 10.2553 32C17.2492 32 21.6244 27.9717 24.0631 24.5924C27.1041 20.3786 28.8482 14.8012 28.8482 9.29037C28.8482 9.06015 28.8453 8.82766 28.8396 8.59592C30.0394 7.49183 31.0723 6.15563 31.9129 4.61984C32.0406 4.38659 32.0268 4.07833 31.8788 3.86361C31.7311 3.64877 31.4849 3.5793 31.2748 3.69303Z" fill="white"/>
</svg>
